<?xml version="1.0" encoding="utf-8"?>
<!-- Generator: Adobe Illustrator 23.0.6, SVG Export Plug-In . SVG Version: 6.00 Build 0)  -->
<svg version="1.1" id="Layer_1" xmlns="http://www.w3.org/2000/svg" xmlns:xlink="http://www.w3.org/1999/xlink" x="0px" y="0px"
	 viewBox="0 0 128.1 128" style="enable-background:new 0 0 128.1 128;" xml:space="preserve">
<style type="text/css">
	.st0{fill:#F1F5F9;stroke:#CBD5E1;stroke-width:0.25;}
	.st1{fill:#CBD5E1;}
	.st2{clip-path:url(#SVGID_2_);fill:#CBD5E1;}
</style>
<path class="st0" d="M64,0.1c35.2,0,63.9,28.6,63.9,63.9S99.2,127.8,64,127.8S0.1,99.2,0.1,64S28.8,0.1,64,0.1z"/>
<circle class="st1" cx="64" cy="50" r="27.9"/>
<g>
	<g>
		<defs>
			<path id="SVGID_1_" d="M64,0.2c35.2,0,63.9,28.6,63.9,63.9S99.2,127.9,64,127.9S0.2,99.2,0.2,64S28.8,0.2,64,0.2z"/>
		</defs>
		<clipPath id="SVGID_2_">
			<use xlink:href="#SVGID_1_"  style="overflow:visible;"/>
		</clipPath>
		<path class="st2" d="M64,83.9c-33.9,0-47.9,20-47.9,43.9h95.8C111.9,103.9,97.9,83.9,64,83.9z"/>
	</g>
</g>
</svg>
