<?xml version="1.0" encoding="utf-8"?>
<!-- Generator: Adobe Illustrator 23.0.6, SVG Export Plug-In . SVG Version: 6.00 Build 0)  -->
<svg version="1.1" id="Layer_1" xmlns="http://www.w3.org/2000/svg" xmlns:xlink="http://www.w3.org/1999/xlink" x="0px" y="0px"
	 viewBox="0 0 64.2 64.2" style="enable-background:new 0 0 64.2 64.2;" xml:space="preserve">
<style type="text/css">
	.st0{fill:#F1F5F9;stroke:#CBD5E1;stroke-width:0.25;}
	.st1{fill:#CBD5E1;}
	.st2{clip-path:url(#SVGID_2_);fill:#CBD5E1;}
</style>
<path class="st0" d="M32.1,0.1c17.6,0,31.9,14.4,31.9,32S49.7,64,32.1,64s-32-14.3-32-31.9S14.5,0.1,32.1,0.1z"/>
<circle class="st1" cx="32.1" cy="25.1" r="14"/>
<g>
	<g>
		<defs>
			<path id="SVGID_1_" d="M32.1,0.1c17.6,0,31.9,14.4,31.9,32S49.7,64,32.1,64s-32-14.3-32-31.9S14.5,0.1,32.1,0.1z"/>
		</defs>
		<clipPath id="SVGID_2_">
			<use xlink:href="#SVGID_1_"  style="overflow:visible;"/>
		</clipPath>
		<path class="st2" d="M32.1,42.1c-17,0-24,9.9-24,21.9H56C56,52,49,42.1,32.1,42.1z"/>
	</g>
</g>
</svg>
