<?xml version="1.0" encoding="utf-8"?>
<!-- Generator: Adobe Illustrator 23.0.6, SVG Export Plug-In . SVG Version: 6.00 Build 0)  -->
<svg version="1.1" id="Layer_1" xmlns="http://www.w3.org/2000/svg" xmlns:xlink="http://www.w3.org/1999/xlink" x="0px" y="0px"
	 viewBox="0 0 128 128" style="enable-background:new 0 0 128 128;" xml:space="preserve">
<style type="text/css">
	.st0{fill:#CBD5E1;}
</style>
<path class="st0" d="M114.2,128H13.8C6.1,128,0,121.9,0,114.2V13.8C0,6.1,6.1,0,13.8,0h100.4c7.7,0,13.8,6.1,13.8,13.8v100.4
	C128,121.9,121.9,128,114.2,128z M13.8,2.5c-6.3,0-11.3,5-11.3,11.3v100.4c0,6.3,5,11.3,11.3,11.3h100.4c6.3,0,11.3-5,11.3-11.3
	V13.8c0-6.3-5-11.3-11.3-11.3H13.8z"/>
<path class="st0" d="M77.1,53.1L77.1,53.1c-2.3-2.6-2.3-2.5-4.3,0C66.3,61,59.6,68.9,53.1,76.8c-1,1.3-1.6,1.1-2.6,0.1
	c-2.4-2.5-4.9-4.9-7.4-7.4c-0.9-1-1.5-1-2.5,0c-6,6.1-12,12.2-18.2,18.2c0,0-0.1,0.1-0.1,0.3h83.7c-0.1-0.3-0.4-0.5-0.5-0.8
	C95.9,75.7,86.5,64.4,77.1,53.1z"/>
<path class="st0" d="M45.1,40.3c-4.6,0-8.4,3.6-8.4,8.3c0,4.9,3.5,8.5,8.3,8.5s8.5-3.6,8.5-8.4C53.6,44,49.8,40.3,45.1,40.3z"/>
</svg>
