<?xml version="1.0" encoding="utf-8"?>
<!-- Generator: Adobe Illustrator 23.0.6, SVG Export Plug-In . SVG Version: 6.00 Build 0)  -->
<svg version="1.1" id="Layer_1" xmlns="http://www.w3.org/2000/svg" xmlns:xlink="http://www.w3.org/1999/xlink" x="0px" y="0px"
	 viewBox="0 0 16 16" style="enable-background:new 0 0 16 16;" xml:space="preserve">
<style type="text/css">
	.st0{fill:#CBD5E1;}
</style>
<path class="st0" d="M14.3,16H1.7c-1,0-1.7-0.8-1.7-1.7V1.7C0,0.8,0.8,0,1.7,0h12.5c1,0,1.7,0.8,1.7,1.7v12.5
	C16,15.2,15.2,16,14.3,16z M1.7,0.3c-0.8,0-1.4,0.6-1.4,1.4v12.5c0,0.8,0.6,1.4,1.4,1.4h12.5c0.8,0,1.4-0.6,1.4-1.4V1.7
	c0-0.8-0.6-1.4-1.4-1.4H1.7z"/>
<path class="st0" d="M9.6,6.6L9.6,6.6c-0.3-0.3-0.3-0.3-0.5,0c-0.8,1-1.6,2-2.5,3c-0.1,0.2-0.2,0.1-0.3,0C6,9.3,5.7,9,5.4,8.7
	c-0.1-0.1-0.2-0.1-0.3,0C4.3,9.5,3.6,10.2,2.8,11c0,0,0,0,0,0h10.5c0,0,0-0.1-0.1-0.1C12,9.5,10.8,8,9.6,6.6z"/>
<path class="st0" d="M5.6,5c-0.6,0-1.1,0.5-1.1,1c0,0.6,0.4,1.1,1,1.1s1.1-0.5,1.1-1.1C6.7,5.5,6.2,5,5.6,5z"/>
</svg>
