<?xml version="1.0" encoding="utf-8"?>
<!-- Generator: Adobe Illustrator 23.0.6, SVG Export Plug-In . SVG Version: 6.00 Build 0)  -->
<svg version="1.1" id="Layer_1" xmlns="http://www.w3.org/2000/svg" xmlns:xlink="http://www.w3.org/1999/xlink" x="0px" y="0px"
	 viewBox="0 0 24 24" style="enable-background:new 0 0 24 24;" xml:space="preserve">
<style type="text/css">
	.st0{fill:#CBD5E1;}
</style>
<path class="st0" d="M21.4,24H2.6C1.2,24,0,22.8,0,21.4V2.6C0,1.2,1.2,0,2.6,0h18.8C22.8,0,24,1.2,24,2.6v18.8
	C24,22.8,22.8,24,21.4,24z M2.6,0.5c-1.2,0-2.1,0.9-2.1,2.1v18.8c0,1.2,0.9,2.1,2.1,2.1h18.8c1.2,0,2.1-0.9,2.1-2.1V2.6
	c0-1.2-0.9-2.1-2.1-2.1H2.6z"/>
<path class="st0" d="M14.4,10L14.4,10C14,9.5,14,9.5,13.6,10c-1.2,1.5-2.5,3-3.7,4.4c-0.2,0.2-0.3,0.2-0.5,0C9,14,8.5,13.5,8.1,13
	c-0.2-0.2-0.3-0.2-0.5,0c-1.1,1.2-2.3,2.3-3.4,3.4c0,0,0,0,0,0h15.7c0,0-0.1-0.1-0.1-0.1C18,14.2,16.2,12.1,14.4,10z"/>
<path class="st0" d="M8.4,7.6c-0.9,0-1.6,0.7-1.6,1.6c0,0.9,0.7,1.6,1.6,1.6S10,10,10,9.1C10,8.3,9.3,7.6,8.4,7.6z"/>
</svg>
