<?xml version="1.0" encoding="utf-8"?>
<!-- Generator: Adobe Illustrator 23.0.6, SVG Export Plug-In . SVG Version: 6.00 Build 0)  -->
<svg version="1.1" id="Layer_1" xmlns="http://www.w3.org/2000/svg" xmlns:xlink="http://www.w3.org/1999/xlink" x="0px" y="0px"
	 viewBox="0 0 256 256" style="enable-background:new 0 0 256 256;" xml:space="preserve">
<style type="text/css">
	.st0{fill:#CBD5E1;}
</style>
<path class="st0" d="M228.4,256H27.6C12.3,256,0,243.7,0,228.4V27.6C0,12.3,12.3,0,27.6,0h200.8C243.7,0,256,12.3,256,27.6v200.8
	C256,243.7,243.7,256,228.4,256z M27.6,5C15.1,5,5,15.1,5,27.6v200.8c0,12.5,10,22.6,22.6,22.6h200.8c12.5,0,22.6-10,22.6-22.6V27.6
	c0-12.5-10-22.6-22.6-22.6H27.6z"/>
<path class="st0" d="M154.1,106.2L154.1,106.2c-4.5-5.3-4.5-5-8.5,0c-13.1,15.8-26.4,31.6-39.4,47.4c-2,2.5-3.3,2.3-5.3,0.3
	c-4.8-5-9.8-9.8-14.8-14.8c-1.8-2-3-2-5,0c-12,12.3-24.1,24.3-36.4,36.4c0,0-0.3,0.3-0.3,0.5h167.4c-0.3-0.5-0.8-1-1-1.5
	C191.7,151.3,172.9,128.8,154.1,106.2z"/>
<path class="st0" d="M90.1,80.6c-9.3,0-16.8,7.3-16.8,16.6c0,9.8,7,17.1,16.6,17.1s17.1-7.3,17.1-16.8
	C107.2,88.1,99.6,80.6,90.1,80.6z"/>
</svg>
