<?xml version="1.0" encoding="utf-8"?>
<!-- Generator: Adobe Illustrator 23.0.6, SVG Export Plug-In . SVG Version: 6.00 Build 0)  -->
<svg version="1.1" id="Layer_1" xmlns="http://www.w3.org/2000/svg" xmlns:xlink="http://www.w3.org/1999/xlink" x="0px" y="0px"
	 viewBox="0 0 32 32" style="enable-background:new 0 0 32 32;" xml:space="preserve">
<style type="text/css">
	.st0{fill:#CBD5E1;}
</style>
<path class="st0" d="M28.5,32H3.5C1.5,32,0,30.5,0,28.5V3.5C0,1.5,1.5,0,3.5,0h25.1C30.5,0,32,1.5,32,3.5v25.1
	C32,30.5,30.5,32,28.5,32z M3.5,0.6c-1.6,0-2.8,1.3-2.8,2.8v25.1c0,1.6,1.3,2.8,2.8,2.8h25.1c1.6,0,2.8-1.3,2.8-2.8V3.5
	c0-1.6-1.3-2.8-2.8-2.8H3.5z"/>
<path class="st0" d="M19.3,13.3L19.3,13.3c-0.6-0.7-0.6-0.6-1.1,0c-1.6,2-3.3,4-4.9,5.9c-0.3,0.3-0.4,0.3-0.7,0
	c-0.6-0.6-1.2-1.2-1.9-1.9c-0.2-0.3-0.4-0.3-0.6,0c-1.5,1.5-3,3-4.5,4.5c0,0,0,0,0,0.1h20.9c0-0.1-0.1-0.1-0.1-0.2
	C24,18.9,21.6,16.1,19.3,13.3z"/>
<path class="st0" d="M11.3,10.1c-1.2,0-2.1,0.9-2.1,2.1c0,1.2,0.9,2.1,2.1,2.1s2.1-0.9,2.1-2.1C13.4,11,12.5,10.1,11.3,10.1z"/>
</svg>
