<?xml version="1.0" encoding="utf-8"?>
<!-- Generator: Adobe Illustrator 23.0.6, SVG Export Plug-In . SVG Version: 6.00 Build 0)  -->
<svg version="1.1" id="Layer_1" xmlns="http://www.w3.org/2000/svg" xmlns:xlink="http://www.w3.org/1999/xlink" x="0px" y="0px"
	 viewBox="0 0 48 48" style="enable-background:new 0 0 48 48;" xml:space="preserve">
<style type="text/css">
	.st0{fill:#CBD5E1;}
</style>
<path class="st0" d="M42.8,48H5.2C2.3,48,0,45.7,0,42.8V5.2C0,2.3,2.3,0,5.2,0h37.6C45.7,0,48,2.3,48,5.2v37.6
	C48,45.7,45.7,48,42.8,48z M5.2,0.9c-2.4,0-4.2,1.9-4.2,4.2v37.6c0,2.4,1.9,4.2,4.2,4.2h37.6c2.4,0,4.2-1.9,4.2-4.2V5.2
	c0-2.4-1.9-4.2-4.2-4.2H5.2z"/>
<path class="st0" d="M28.9,19.9L28.9,19.9c-0.8-1-0.8-0.9-1.6,0c-2.4,3-4.9,5.9-7.4,8.9c-0.4,0.5-0.6,0.4-1,0
	c-0.9-0.9-1.8-1.8-2.8-2.8c-0.3-0.4-0.6-0.4-0.9,0c-2.3,2.3-4.5,4.6-6.8,6.8c0,0,0,0,0,0.1h31.4c0-0.1-0.1-0.2-0.2-0.3
	C36,28.4,32.4,24.1,28.9,19.9z"/>
<path class="st0" d="M16.9,15.1c-1.7,0-3.2,1.4-3.2,3.1c0,1.8,1.3,3.2,3.1,3.2S20,20,20,18.3C20.1,16.5,18.7,15.1,16.9,15.1z"/>
</svg>
