<?xml version="1.0" encoding="utf-8"?>
<!-- Generator: Adobe Illustrator 23.0.6, SVG Export Plug-In . SVG Version: 6.00 Build 0)  -->
<svg version="1.1" id="Layer_1" xmlns="http://www.w3.org/2000/svg" xmlns:xlink="http://www.w3.org/1999/xlink" x="0px" y="0px"
	 viewBox="0 0 64 64" style="enable-background:new 0 0 64 64;" xml:space="preserve">
<style type="text/css">
	.st0{fill:#CBD5E1;}
</style>
<path class="st0" d="M57.1,64H6.9C3.1,64,0,60.9,0,57.1V6.9C0,3.1,3.1,0,6.9,0h50.2C60.9,0,64,3.1,64,6.9v50.2
	C64,60.9,60.9,64,57.1,64z M6.9,1.3c-3.1,0-5.6,2.5-5.6,5.6v50.2c0,3.1,2.5,5.6,5.6,5.6h50.2c3.1,0,5.6-2.5,5.6-5.6V6.9
	c0-3.1-2.5-5.6-5.6-5.6H6.9z"/>
<path class="st0" d="M38.5,26.5L38.5,26.5c-1.1-1.3-1.1-1.3-2.1,0c-3.3,4-6.6,7.9-9.9,11.9C26,39,25.7,39,25.2,38.5
	c-1.2-1.3-2.4-2.4-3.7-3.7c-0.4-0.5-0.8-0.5-1.3,0c-3,3.1-6,6.1-9.1,9.1c0,0-0.1,0.1-0.1,0.1H53c-0.1-0.1-0.2-0.3-0.3-0.4
	C47.9,37.8,43.2,32.2,38.5,26.5z"/>
<path class="st0" d="M22.5,20.1c-2.3,0-4.2,1.8-4.2,4.1c0,2.4,1.8,4.3,4.1,4.3s4.3-1.8,4.3-4.2C26.8,22,24.9,20.1,22.5,20.1z"/>
</svg>
