<?xml version="1.0" encoding="utf-8"?>
<!-- Generator: Adobe Illustrator 23.0.6, SVG Export Plug-In . SVG Version: 6.00 Build 0)  -->
<svg version="1.1" id="Layer_1" xmlns="http://www.w3.org/2000/svg" xmlns:xlink="http://www.w3.org/1999/xlink" x="0px" y="0px"
	 viewBox="0 0 96 96" style="enable-background:new 0 0 96 96;" xml:space="preserve">
<style type="text/css">
	.st0{fill:#CBD5E1;}
</style>
<path class="st0" d="M85.6,96H10.4C4.6,96,0,91.4,0,85.6V10.4C0,4.6,4.6,0,10.4,0h75.3C91.4,0,96,4.6,96,10.4v75.3
	C96,91.4,91.4,96,85.6,96z M10.4,1.9c-4.7,0-8.5,3.8-8.5,8.5v75.3c0,4.7,3.8,8.5,8.5,8.5h75.3c4.7,0,8.5-3.8,8.5-8.5V10.4
	c0-4.7-3.8-8.5-8.5-8.5H10.4z"/>
<path class="st0" d="M57.8,39.8L57.8,39.8c-1.7-2-1.7-1.9-3.2,0c-4.9,5.9-9.9,11.9-14.8,17.8c-0.8,0.9-1.2,0.8-2,0.1
	c-1.8-1.9-3.7-3.7-5.6-5.6c-0.7-0.8-1.1-0.8-1.9,0c-4.5,4.6-9,9.1-13.6,13.6c0,0-0.1,0.1-0.1,0.2h62.8c-0.1-0.2-0.3-0.4-0.4-0.6
	C71.9,56.8,64.8,48.3,57.8,39.8z"/>
<path class="st0" d="M33.8,30.2c-3.5,0-6.3,2.7-6.3,6.2c0,3.7,2.6,6.4,6.2,6.4s6.4-2.7,6.4-6.3C40.2,33,37.4,30.2,33.8,30.2z"/>
</svg>
