<svg xmlns="http://www.w3.org/2000/svg" width="96" height="96" viewBox="0 0 102 102">
  <path fill="#3A7BFF" d="M91,102H11c-6.1,0-11-4.9-11-11V11C0,4.9,4.9,0,11,0h80c6.1,0,11,4.9,11,11v80C102,97.1,97.1,102,91,102z M11,2c-5,0-9,4-9,9v80c0,5,4,9,9,9h80c5,0,9-4,9-9V11c0-5-4-9-9-9H11z"/>
  <path fill="#3A7BFF" d="M61.4,42.3L61.4,42.3c-1.8-2.1-1.8-2-3.4,0c-5.2,6.3-10.5,12.6-15.7,18.9c-0.8,1-1.3,0.9-2.1,0.1c-1.9-2-3.9-3.9-5.9-5.9c-0.7-0.8-1.2-0.8-2,0c-4.8,4.9-9.6,9.7-14.5,14.5c0,0-0.1,0.1-0.1,0.2h66.7c-0.1-0.2-0.3-0.4-0.4-0.6C76.4,60.3,68.9,51.3,61.4,42.3z"/>
  <path fill="#3A7BFF" d="M35.9,32.1c-3.7,0-6.7,2.9-6.7,6.6c0,3.9,2.8,6.8,6.6,6.8s6.8-2.9,6.8-6.7C42.7,35.1,39.7,32.1,35.9,32.1z"/>
</svg>