<?xml version="1.0" encoding="utf-8"?>
<!-- Generator: Adobe Illustrator 23.0.6, SVG Export Plug-In . SVG Version: 6.00 Build 0)  -->
<svg version="1.1" id="Layer_1" xmlns="http://www.w3.org/2000/svg" xmlns:xlink="http://www.w3.org/1999/xlink" x="0px" y="0px"
	 viewBox="0 0 595.3 595.3" style="enable-background:new 0 0 595.3 595.3;" xml:space="preserve">
<style type="text/css">
	.st0{fill:#CBD5E1;}
</style>
<path class="st0" d="M531.1,595.3H64.2C28.6,595.3,0,566.7,0,531.1V64.2C0,28.6,28.6,0,64.2,0h466.9c35.6,0,64.2,28.6,64.2,64.2
	v466.9C595.3,566.7,566.7,595.3,531.1,595.3z M64.2,11.7C35,11.7,11.7,35,11.7,64.2v466.9c0,29.2,23.3,52.5,52.5,52.5h466.9
	c29.2,0,52.5-23.3,52.5-52.5V64.2c0-29.2-23.3-52.5-52.5-52.5H64.2z"/>
<path class="st0" d="M358.3,246.9L358.3,246.9c-10.5-12.3-10.5-11.7-19.8,0c-30.3,36.8-61.3,73.5-91.6,110.3
	c-4.7,5.8-7.6,5.3-12.3,0.6c-11.1-11.7-22.8-22.8-34.4-34.4c-4.1-4.7-7-4.7-11.7,0c-28,28.6-56,56.6-84.6,84.6c0,0-0.6,0.6-0.6,1.2
	h389.3c-0.6-1.2-1.8-2.3-2.3-3.5C445.9,351.9,402.1,299.4,358.3,246.9z"/>
<path class="st0" d="M209.5,187.3c-21.6,0-39.1,16.9-39.1,38.5c0,22.8,16.3,39.7,38.5,39.7s39.7-16.9,39.7-39.1
	C249.2,204.8,231.7,187.3,209.5,187.3z"/>
</svg>
